<svg width="32" height="32" viewBox="0 0 32 32" fill="none" xmlns="http://www.w3.org/2000/svg">
<g clip-path="url(#clip0_5975_11761)">
<path d="M0 16C0 8.45753 0 4.68629 2.34315 2.34315C4.68629 0 8.45753 0 16 0C23.5425 0 27.3137 0 29.6569 2.34315C32 4.68629 32 8.45753 32 16C32 23.5425 32 27.3137 29.6569 29.6569C27.3137 32 23.5425 32 16 32C8.45753 32 4.68629 32 2.34315 29.6569C0 27.3137 0 23.5425 0 16Z" fill="#7F3BF5"/>
<path d="M9.18415 10.0468C9.99587 9.49862 10.9382 9.33337 11.5681 9.33337H18.5C18.0397 9.33337 17.6666 9.70647 17.6666 10.1667C17.6666 10.6269 18.0397 11 18.5 11H11.5681C11.1754 11 10.5836 11.1128 10.1169 11.428C9.69621 11.7121 9.33329 12.1832 9.33329 13.0639C9.33329 13.9461 9.69781 14.4281 10.1231 14.7208C10.5922 15.0438 11.1835 15.1613 11.5681 15.1613H20.4977C21.1331 15.1613 22.0633 15.3331 22.86 15.8905C23.7011 16.4789 24.3333 17.4598 24.3333 18.9079C24.3333 20.3555 23.7016 21.3385 22.8623 21.9298C22.0665 22.4905 21.1361 22.6667 20.4977 22.6667H13.5C13.9602 22.6667 14.3333 22.2936 14.3333 21.8334C14.3333 21.3731 13.9602 21 13.5 21H20.4977C20.8819 21 21.4527 20.8841 21.9024 20.5673C22.3085 20.2812 22.6666 19.8014 22.6666 18.9079C22.6666 18.0149 22.3091 17.5391 21.9046 17.2562C21.4559 16.9423 20.8849 16.828 20.4977 16.828H11.5681C10.9301 16.828 9.98723 16.6507 9.17799 16.0936C8.32484 15.5063 7.66663 14.5229 7.66663 13.0639C7.66663 11.6035 8.32643 10.626 9.18415 10.0468Z" fill="white"/>
<path d="M13.5 21C13.0397 21 12.6666 21.3731 12.6666 21.8334C12.6666 22.2936 13.0397 22.6667 13.5 22.6667H8.49996C8.03972 22.6667 7.66663 22.2936 7.66663 21.8334C7.66663 21.3731 8.03972 21 8.49996 21H13.5Z" fill="white"/>
<path d="M18.5 11C18.9602 11 19.3333 10.6269 19.3333 10.1667C19.3333 9.70647 18.9602 9.33337 18.5 9.33337H23.4545C23.9147 9.33337 24.2878 9.70647 24.2878 10.1667C24.2878 10.6269 23.9147 11 23.4545 11H18.5Z" fill="white"/>
<path fill-rule="evenodd" clip-rule="evenodd" d="M18.5 9.33329C18.0398 9.33329 17.6667 9.70639 17.6667 10.1666C17.6667 10.6269 18.0398 11 18.5 11C18.9602 11 19.3333 10.6269 19.3333 10.1666C19.3333 9.70639 18.9602 9.33329 18.5 9.33329ZM16 10.1666C16 8.78591 17.1193 7.66663 18.5 7.66663C19.8807 7.66663 21 8.78591 21 10.1666C21 11.5473 19.8807 12.6666 18.5 12.6666C17.1193 12.6666 16 11.5473 16 10.1666Z" fill="white"/>
<path fill-rule="evenodd" clip-rule="evenodd" d="M13.5 21C13.0398 21 12.6667 21.3731 12.6667 21.8334C12.6667 22.2936 13.0398 22.6667 13.5 22.6667C13.9602 22.6667 14.3333 22.2936 14.3333 21.8334C14.3333 21.3731 13.9602 21 13.5 21ZM11 21.8334C11 20.4527 12.1193 19.3334 13.5 19.3334C14.8807 19.3334 16 20.4527 16 21.8334C16 23.2141 14.8807 24.3334 13.5 24.3334C12.1193 24.3334 11 23.2141 11 21.8334Z" fill="white"/>
</g>
<defs>
<clipPath id="clip0_5975_11761">
<rect width="32" height="32" fill="white"/>
</clipPath>
</defs>
</svg>
